<?xml version="1.0" standalone="no"?>
<!DOCTYPE svg PUBLIC "-//W3C//DTD SVG 20010904//EN"
 "http://www.w3.org/TR/2001/REC-SVG-20010904/DTD/svg10.dtd">
<svg version="1.0" xmlns="http://www.w3.org/2000/svg"
 width="236.000000pt" height="139.000000pt" viewBox="0 0 236.000000 139.000000"
 preserveAspectRatio="xMidYMid meet">

<g transform="translate(0.000000,139.000000) scale(0.100000,-0.100000)"
fill="#fff" stroke="none">
<path d="M1325 1320 c-202 -6 -235 -15 -293 -85 -47 -58 -52 -91 -52 -356 0
-272 5 -293 71 -356 62 -58 96 -67 287 -71 l172 -4 0 125 0 125 -119 3 c-66 2
-123 7 -126 11 -13 12 -8 60 6 69 8 5 60 9 117 9 l102 0 0 95 0 95 -82 0
c-115 0 -166 31 -123 74 13 13 38 16 120 16 l104 0 3 115 3 114 118 -181 117
-181 0 -244 0 -243 145 0 145 0 0 245 0 244 120 186 c66 103 120 188 120 191
0 2 -64 4 -142 4 l-143 -1 -48 -69 c-26 -39 -51 -70 -56 -70 -4 0 -27 31 -51
70 l-44 69 -146 3 c-80 2 -226 1 -325 -2z"/>
<path d="M130 885 l0 -435 140 0 140 0 0 201 c0 143 3 200 11 197 6 -2 48 -92
92 -201 l81 -197 158 0 c87 0 158 2 158 4 0 3 -50 108 -110 236 -61 127 -110
235 -110 239 0 5 50 93 110 196 61 103 110 189 110 191 0 3 -66 3 -147 2
l-147 -3 -94 -162 c-52 -90 -99 -160 -103 -157 -5 3 -9 77 -9 165 l0 159 -140
0 -140 0 0 -435z"/>
<path d="M70 345 c0 -33 2 -35 35 -35 l35 0 0 -100 0 -100 45 0 45 0 0 100 0
100 25 0 c22 0 25 4 25 35 l0 35 -105 0 -105 0 0 -35z"/>
<path d="M1692 274 c4 -105 4 -106 36 -135 18 -16 43 -29 57 -29 22 0 25 4 25
40 0 28 -4 40 -14 40 -8 0 -17 7 -20 16 -9 23 -8 24 14 24 16 0 20 7 20 35 0
28 -4 35 -20 35 -17 0 -20 7 -20 40 l0 40 -41 0 -41 0 4 -106z"/>
<path d="M353 288 c-28 -14 -43 -57 -43 -124 l0 -54 40 0 40 0 0 44 c0 54 8
76 26 76 9 0 14 12 14 35 0 32 -3 35 -27 34 -16 0 -38 -5 -50 -11z"/>
<path d="M475 267 c-19 -19 -35 -45 -35 -56 0 -55 49 -101 105 -101 22 0 25 5
25 34 0 25 -5 35 -20 39 -21 5 -27 31 -10 42 22 13 40 -17 40 -66 l0 -49 41 0
41 0 -4 70 c-5 88 -23 111 -97 118 -47 4 -53 2 -86 -31z"/>
<path d="M733 276 c-24 -21 -28 -32 -31 -95 l-4 -71 40 0 41 0 3 57 c4 81 28
85 28 4 l0 -61 40 0 40 0 0 60 c0 32 -5 70 -11 83 -23 50 -100 62 -146 23z"/>
<path d="M980 282 c-13 -11 -23 -33 -27 -61 -4 -31 -11 -45 -24 -48 -14 -4
-19 -15 -19 -39 0 -29 3 -34 24 -34 42 0 76 18 87 47 6 16 17 41 25 56 8 16
14 44 14 63 0 31 -3 34 -29 34 -16 0 -39 -8 -51 -18z"/>
<path d="M1144 290 c-43 -17 -54 -48 -54 -152 l0 -98 40 0 c39 0 40 1 40 35 0
31 3 35 25 35 15 0 39 7 55 15 68 35 68 125 0 160 -32 16 -73 18 -106 5z m71
-85 c0 -13 -8 -21 -22 -23 -17 -3 -23 2 -23 16 0 10 3 22 7 26 13 13 38 1 38
-19z"/>
<path d="M1368 285 c-53 -30 -64 -94 -24 -138 65 -70 186 -32 186 59 0 72 -93
118 -162 79z m80 -78 c4 -20 -25 -34 -40 -19 -15 15 -1 44 19 40 10 -2 19 -11
21 -21z"/>
<path d="M1603 288 c-28 -14 -43 -57 -43 -124 l0 -54 40 0 40 0 0 44 c0 54 8
76 26 76 9 0 14 12 14 35 0 32 -3 35 -27 34 -16 0 -38 -5 -50 -11z"/>
<path d="M1881 286 c-98 -54 -38 -191 75 -173 47 8 50 12 30 42 -10 15 -24 24
-38 22 -11 -1 -23 4 -25 11 -3 9 12 12 56 12 58 0 61 1 61 24 0 57 -98 96
-159 62z m76 -52 c-3 -3 -12 -4 -19 -1 -8 3 -5 6 6 6 11 1 17 -2 13 -5z"/>
<path d="M2120 282 c-13 -11 -23 -33 -27 -61 -4 -31 -11 -45 -24 -48 -14 -4
-19 -15 -19 -39 0 -29 3 -34 24 -34 42 0 76 18 87 47 6 16 17 41 25 56 8 16
14 44 14 63 0 31 -3 34 -29 34 -16 0 -39 -8 -51 -18z"/>
</g>
</svg>
